<svg xmlns="http://www.w3.org/2000/svg" viewBox="0 0 860 210" role="img" aria-labelledby="title desc">
  <title id="title">Next Print NY</title>
  <desc id="desc">Logo de Next Print NY con curvas azules, texto principal y banderas de Ecuador.</desc>
  <defs>
    <linearGradient id="blueText" x1="0" x2="1">
      <stop offset="0" stop-color="#061241"/>
      <stop offset="0.52" stop-color="#0b3a94"/>
      <stop offset="1" stop-color="#24a2ef"/>
    </linearGradient>
    <filter id="softShadow" x="-10%" y="-20%" width="120%" height="140%">
      <feDropShadow dx="0" dy="5" stdDeviation="4" flood-color="#05205b" flood-opacity="0.2"/>
    </filter>
  </defs>
  <rect width="860" height="210" fill="#fff"/>
  <g filter="url(#softShadow)">
    <g transform="translate(18 24)">
      <path d="M11 35 C32 13 78 8 122 25 C92 25 68 40 57 64 C45 89 54 120 78 143 C45 131 19 108 8 80 C-2 55 0 45 11 35Z" fill="none" stroke="#0b3a94" stroke-width="10"/>
      <path d="M45 22 C73 -7 130 3 168 31 C120 24 86 42 70 74 C57 102 64 137 96 162 C51 147 20 115 13 80 C8 54 22 35 45 22Z" fill="none" stroke="#1267bd" stroke-width="7"/>
      <path d="M82 16 C112 -2 153 11 183 36 C143 31 107 50 92 82 C80 107 86 137 114 160 C83 151 58 128 49 96 C40 62 54 33 82 16Z" fill="none" stroke="#061241" stroke-width="5"/>
    </g>
    <text x="205" y="91" font-family="Arial Black, Arial, sans-serif" font-size="62" font-style="italic" font-weight="900" fill="url(#blueText)">Next Print NY.</text>
    <text x="254" y="132" font-family="Arial, sans-serif" font-size="20" font-weight="900" letter-spacing="1.5" fill="#071231">IMPRESIONES DE CALIDAD. A TIEMPO. SIEMPRE.</text>
    <g transform="translate(35 62)">
      <rect x="0" y="0" width="95" height="62" rx="5" fill="#ffd51f" stroke="#d8e0ef" stroke-width="3"/>
      <rect x="0" y="31" width="95" height="16" fill="#1746a2"/>
      <rect x="0" y="47" width="95" height="15" fill="#d8172f"/>
      <circle cx="48" cy="34" r="8" fill="#f5d76e" stroke="#05205b" stroke-width="2"/>
      <line x1="-8" y1="-18" x2="6" y2="82" stroke="#777" stroke-width="5"/>
    </g>
    <g transform="translate(730 62)">
      <rect x="0" y="0" width="95" height="62" rx="5" fill="#ffd51f" stroke="#d8e0ef" stroke-width="3"/>
      <rect x="0" y="31" width="95" height="16" fill="#1746a2"/>
      <rect x="0" y="47" width="95" height="15" fill="#d8172f"/>
      <circle cx="48" cy="34" r="8" fill="#f5d76e" stroke="#05205b" stroke-width="2"/>
      <line x1="-8" y1="-18" x2="6" y2="82" stroke="#777" stroke-width="5"/>
    </g>
    <text x="318" y="171" font-family="Arial, sans-serif" font-size="20" font-weight="900" fill="#05205b">★★★★★</text>
  </g>
</svg>
